<?xml version="1.0" standalone="no"?>
<!DOCTYPE svg PUBLIC "-//W3C//DTD SVG 20010904//EN"
 "http://www.w3.org/TR/2001/REC-SVG-20010904/DTD/svg10.dtd">
<svg version="1.0" xmlns="http://www.w3.org/2000/svg"
 width="512.000000pt" height="512.000000pt" viewBox="0 0 512.000000 512.000000"
 preserveAspectRatio="xMidYMid meet">
<metadata>
Created by potrace 1.14, written by Peter Selinger 2001-2017
</metadata>
<g transform="translate(0.000000,512.000000) scale(0.100000,-0.100000)"
fill="#000000" stroke="none">
<path d="M2477 4954 c-1 -1 -47 -4 -102 -8 -549 -34 -1088 -281 -1490 -681
-133 -132 -152 -153 -240 -270 -269 -355 -438 -801 -472 -1240 -12 -156 -5
-424 12 -510 3 -11 7 -37 10 -58 17 -121 69 -322 118 -457 169 -461 501 -880
919 -1161 195 -131 458 -255 648 -306 30 -8 80 -21 110 -29 84 -22 270 -53
367 -61 101 -8 335 -8 408 1 131 14 151 17 171 21 12 3 39 7 60 10 229 34 591
173 819 315 711 443 1141 1214 1138 2045 0 120 -8 261 -18 310 -3 11 -7 36
-10 55 -123 837 -722 1572 -1526 1873 -156 58 -382 115 -524 131 -27 3 -72 8
-100 11 -48 6 -293 13 -298 9z"/>
</g>
</svg>
